<svg xmlns="http://www.w3.org/2000/svg" width="89" height="55" viewBox="0 0 89 55">
  <path fill="#73328D" d="M681.0101,367.062316 C688.097787,369.810784 695.450601,370.60616 702.989001,369.934509 C708.035223,369.483796 712.913532,368.352594 717.50904,366.187402 C718.887692,365.533426 720.222157,364.755725 721.556622,363.995698 C722.148736,363.659873 722.599449,363.332885 722.572936,363.271022 C722.546424,363.200322 722.396186,363.076597 722.237111,362.997059 C722.139898,362.944034 722.051523,362.899846 721.95431,362.855659 C715.281986,359.709503 708.600824,356.563348 701.9285,353.408354 C692.28677,348.865871 682.64504,344.314551 673.012148,339.745555 C672.455384,339.48043 672.110721,339.55113 671.721871,339.966493 C671.059057,340.700007 670.325543,341.380495 669.69808,342.149359 C667.824526,344.429438 666.596111,347.001155 666.419361,349.979398 C666.180748,354.177218 667.930576,357.597337 670.740906,360.54023 C673.630774,363.544985 677.156943,365.577614 681.0101,367.062316 Z M689.202477,344.17315 C700.991723,349.740785 712.789806,355.299583 724.579053,360.876055 C724.985578,361.061643 725.241866,361.070481 725.542342,360.71698 C726.019568,360.133704 726.558656,359.603453 727.035882,359.011339 C731.030439,354.080006 731.109977,347.725832 727.25682,342.670773 C724.464165,339.020879 720.743571,336.625912 716.589938,334.831896 C711.800005,332.763918 706.762621,331.729928 701.566161,331.40294 C694.151486,330.943389 686.957748,331.889004 680.090998,334.787709 C678.738858,335.35331 677.439743,336.060311 676.131791,336.7408 C675.53084,337.05895 675.062452,337.350588 675.088964,337.412451 C675.115477,337.474313 675.628053,337.757114 676.246679,338.048752 C680.568224,340.090218 684.880932,342.131684 689.202477,344.17315 Z M729.475036,358.816914 C728.96246,359.815553 728.458722,360.814193 727.822421,361.724457 C725.666067,364.80875 722.617124,366.832541 719.276543,368.432131 C713.832633,371.030361 708.026385,372.188075 702.043387,372.568089 C696.864603,372.895077 691.703494,372.585764 686.621922,371.454562 C681.770126,370.376385 677.156943,368.697257 673.074011,365.789714 C670.422756,363.889648 668.204539,361.600732 666.9231,358.534114 C666.843562,358.330851 666.764024,358.136425 666.684487,357.933163 C666.560761,357.597337 666.410524,357.332211 666.357499,357.340834 C666.304473,357.349886 666.295636,357.827112 666.339824,358.419226 C666.375174,358.772727 666.392849,359.126227 666.392849,359.479728 C666.410524,363.27986 668.001276,366.417178 670.528806,369.130295 C673.498211,372.338313 677.183455,374.468155 681.2222,375.988207 C690.218791,379.372976 699.453995,379.823689 708.812924,377.888273 C714.601497,376.695209 719.974707,374.52118 724.48184,370.588485 C727.230307,368.184681 729.298286,365.312488 729.899237,361.618407 C730.049475,360.734655 730.084825,359.833228 730.120175,358.931802 C730.146687,358.251313 730.155525,357.712225 730.111337,357.721062 C730.075987,357.7299 729.784349,358.215963 729.475036,358.816914 Z M743.517849,355.891696 C744.737426,355.30842 745.912816,354.645607 747.088205,353.947443 C747.600781,353.655805 748.007307,353.364167 748.007307,353.319979 C747.971957,353.249279 747.821719,353.134391 747.715669,353.063691 C747.600781,353.028341 747.530081,352.992991 747.459381,352.957641 C742.271759,350.527324 737.128325,348.061657 731.984891,345.675528 C733.487268,348.618421 734.30032,351.817602 734.30032,355.158183 C734.30032,356.41311 734.185432,357.623849 733.964494,358.799239 C737.234375,358.242476 740.433556,357.332211 743.517849,355.891696 Z M729.404336,341.557246 C736.173873,344.791777 742.969923,347.990957 749.765973,351.190138 C750.137148,351.375726 750.358086,351.375726 750.614374,351.07525 C751.0209,350.562674 751.498126,350.085449 751.940001,349.572873 C755.46617,345.198302 755.545708,339.568805 752.125589,335.088184 C749.659922,331.853653 746.390041,329.759162 742.713635,328.177247 C738.453952,326.339044 734.008682,325.419942 729.413174,325.128304 C722.864574,324.721778 716.510401,325.57018 710.403677,328.141897 C709.670163,328.433535 708.9013,328.80471 708.158948,329.211236 C717.199727,331.12014 724.773478,335.60076 729.404336,341.557246 Z M754.661956,348.397483 C754.617769,348.432833 754.361481,348.839359 754.105193,349.387285 C753.627967,350.271036 753.186091,351.154788 752.638165,351.959002 C750.729262,354.680957 748.042657,356.48381 745.064414,357.880137 C741.317307,359.674153 737.384613,360.708142 733.381218,361.185368 C732.789105,363.24451 731.834653,365.188763 730.623913,367.026966 C732.356066,366.876728 734.079382,366.620441 735.802698,366.258102 C740.954969,365.188763 745.691878,363.27986 749.66876,359.789041 C752.125589,357.650362 753.928442,355.122833 754.485206,351.852952 C754.591256,351.07525 754.626606,350.271036 754.661956,349.493335 C754.697306,348.874709 754.697306,348.397483 754.661956,348.397483 Z" transform="translate(-666 -325)"/>
</svg>
