<svg xmlns="http://www.w3.org/2000/svg" width="161" height="182" viewBox="0 0 161 182">
  <path fill="#FF0079" d="M137.927988,220.651341 C145.081863,220.651341 152.048883,219.823841 158.829048,218.16884 C165.609213,216.513839 172.069056,214.084724 178.208575,210.881497 C184.348095,207.678269 190.060517,203.781009 195.345843,199.189716 C200.631169,194.598423 205.302542,189.419872 209.359964,183.654062 L209.359964,183.654062 L177.327688,151.461625 C175.6193,155.305498 173.403734,158.802355 170.68099,161.952195 C167.958247,165.102036 164.861794,167.771392 161.39163,169.960264 C157.921467,172.149136 154.211062,173.830831 150.260415,175.005348 C146.309767,176.179865 142.198958,176.767123 137.927988,176.767123 C136.2196,176.767123 134.511212,176.687042 132.802824,176.526881 C131.094436,176.366719 129.386048,176.019703 127.67766,175.485832 L127.67766,175.485832 L209.680286,76.6662605 C205.622865,70.9004508 200.924798,65.695206 195.586085,61.050526 C190.247372,56.405846 184.508256,52.4818922 178.368737,49.2786646 C172.229217,46.075437 165.742681,43.6196291 158.909129,41.9112411 C152.075577,40.202853 145.081863,39.348659 137.927988,39.348659 C125.862498,39.348659 114.517733,41.5375312 103.893695,45.9152756 C93.2696569,50.29302 83.9802969,56.4325395 76.025615,64.3338343 C68.0709331,72.235129 61.7979457,81.7914247 57.2066529,93.0027213 C52.61536,104.214018 50.3197135,116.599831 50.3197135,130.160161 C50.3197135,143.400169 52.61536,155.54574 57.2066529,166.596875 C61.7979457,177.648011 68.0709331,187.177613 76.025615,195.185682 C83.9802969,203.193751 93.2696569,209.440044 103.893695,213.924563 C114.517733,218.409082 125.862498,220.651341 137.927988,220.651341 Z M99.1689344,152.903077 C98.3147404,151.408238 97.6207077,149.69985 97.0868364,147.777913 C96.5529652,145.855977 96.0991746,143.853959 95.7254647,141.771861 C95.3517548,139.689763 95.0848192,137.634359 94.9246578,135.605648 C94.7644964,133.576937 94.6844157,131.761775 94.6844157,130.160161 C94.6844157,123.006286 95.8055454,116.573138 98.0478047,110.860715 C100.290064,105.148293 103.359824,100.26337 107.257084,96.2059489 C111.154344,92.1485272 115.745637,89.0253803 121.030963,86.8365081 C126.316288,84.6476359 131.94863,83.5531998 137.927988,83.5531998 C140.063473,83.5531998 142.118878,83.6599741 144.094201,83.8735226 C146.069525,84.0870711 148.071542,84.5675552 150.100253,85.314975 L150.100253,85.314975 L99.1689344,152.903077 Z" transform="translate(-49.412 -38.75)"/>
</svg>
