<svg xmlns="http://www.w3.org/2000/svg" width="28" height="27" viewBox="0 0 28 27">
  <path fill="#FF0079" d="M13.9642857,94.5 C15.7738095,94.5 17.4761905,94.1547619 19.0714286,93.4642857 C20.6666667,92.7738095 22.0595238,91.8452381 23.25,90.6785714 C24.4404762,89.5119048 25.3809524,88.1428571 26.0714286,86.5714286 C26.7619048,85 27.1071429,83.3095238 27.1071429,81.5 C27.1071429,79.7380952 26.7619048,78.0595238 26.0714286,76.4642857 C25.3809524,74.8690476 24.4404762,73.4880952 23.25,72.3214286 C22.0595238,71.1547619 20.6666667,70.2261905 19.0714286,69.5357143 C17.4761905,68.8452381 15.7738095,68.5 13.9642857,68.5 C12.1547619,68.5 10.452381,68.8452381 8.85714286,69.5357143 C7.26190476,70.2261905 5.88095238,71.1547619 4.71428571,72.3214286 C3.54761905,73.4880952 2.61904762,74.8690476 1.92857143,76.4642857 C1.23809524,78.0595238 0.892857143,79.7380952 0.892857143,81.5 C0.892857143,83.3095238 1.23809524,85 1.92857143,86.5714286 C2.61904762,88.1428571 3.54761905,89.5119048 4.71428571,90.6785714 C5.88095238,91.8452381 7.26190476,92.7738095 8.85714286,93.4642857 C10.452381,94.1547619 12.1547619,94.5 13.9642857,94.5 Z" transform="translate(0 -68)"/>
</svg>
