<svg xmlns="http://www.w3.org/2000/svg" width="78" height="78" viewBox="0 0 78 78">
  <g fill="none" fill-rule="evenodd" transform="translate(-.177 -.75)">
    <circle cx="38.92" cy="39.597" r="38.744" fill="#0C0A1D" fill-opacity=".96"/>
    <path fill="#FFF" fill-rule="nonzero" d="M39.2851804,78.3531498 C42.3431898,78.3531498 45.3213258,77.9994248 48.2195885,77.2919749 C51.1178511,76.5845249 53.879188,75.546171 56.5035991,74.176913 C59.1280102,72.8076551 61.5698535,71.1417246 63.8291291,69.1791215 C66.0884047,67.2165185 68.0852392,65.0028848 69.8196327,62.5382205 L69.8196327,62.5382205 L56.1270531,48.7771781 C55.3967822,50.4202876 54.4497122,51.9150609 53.2858429,53.2614979 C52.1219736,54.6079348 50.7983576,55.7489831 49.3149948,56.6846427 C47.8316321,57.6203023 46.2455749,58.3391628 44.5568235,58.841224 C42.868072,59.3432852 41.1108576,59.5943159 39.2851804,59.5943159 C38.5549094,59.5943159 37.8246385,59.5600844 37.0943676,59.4916215 C36.3640967,59.4231586 35.6338258,59.2748224 34.9035549,59.0466127 L34.9035549,59.0466127 L69.9565584,16.8050049 C68.222165,14.3403406 66.21392,12.1152964 63.9318235,10.1298724 C61.6497269,8.14444838 59.1964731,6.46710739 56.572062,5.09784944 C53.9476509,3.72859149 51.1749036,2.67882706 48.2538199,1.94855616 C45.3327363,1.21828525 42.3431898,0.853149795 39.2851804,0.853149795 C34.1276421,0.853149795 29.2781868,1.78880939 24.7368146,3.66012859 C20.1954424,5.53144779 16.2245944,8.15585886 12.8242705,11.5333618 C9.42394655,14.9108648 6.74248306,18.9958176 4.77988,23.7882205 C2.81727694,28.5806233 1.83597541,33.8750874 1.83597541,39.6716127 C1.83597541,45.3312122 2.81727694,50.522982 4.77988,55.2469219 C6.74248306,59.9708618 9.42394655,64.0444042 12.8242705,67.4675491 C16.2245944,70.890694 20.1954424,73.560747 24.7368146,75.4777081 C29.2781868,77.3946692 34.1276421,78.3531498 39.2851804,78.3531498 Z M22.7171592,49.3933441 C22.3520237,48.7543571 22.0553511,48.0240862 21.8271415,47.2025314 C21.5989318,46.3809766 21.4049536,45.5251904 21.2452069,44.6351728 C21.0854601,43.7451551 20.9713553,42.8665479 20.9028924,41.9993512 C20.8344295,41.1321545 20.800198,40.3562417 20.800198,39.6716127 C20.800198,36.6136033 21.2794383,33.8636769 22.2379189,31.4218335 C23.1963994,28.9799902 24.508605,26.8918718 26.1745355,25.1574784 C27.840466,23.423085 29.803069,22.0880585 32.0623447,21.1523989 C34.3216203,20.2167393 36.7292322,19.7489095 39.2851804,19.7489095 C40.198019,19.7489095 41.0766262,19.7945514 41.9210019,19.8858353 C42.7653776,19.9771192 43.6211639,20.1825079 44.4883606,20.5020014 L44.4883606,20.5020014 L22.7171592,49.3933441 Z"/>
    <path fill="#DA0068" d="M38.9202739,78.3402096 C60.3177346,78.3402096 77.6638037,60.9941404 77.6638037,39.5966797 C77.6638037,18.199219 60.3177346,55.1598444 38.9202739,55.1598444 C17.5228131,55.1598444 0.176743959,18.199219 0.176743959,39.5966797 C0.176743959,60.9941404 17.5228131,78.3402096 38.9202739,78.3402096 Z"/>
    <path fill="#FF0079" d="M22.8814694,62.3143453 C44.2789301,62.3143453 61.6249993,44.9682761 61.6249993,23.5708154 C61.6249993,2.17335471 44.2789301,39.1339802 22.8814694,39.1339802 C1.48400866,39.1339802 -15.8620605,2.17335471 -15.8620605,23.5708154 C-15.8620605,44.9682761 1.48400866,62.3143453 22.8814694,62.3143453 Z" transform="rotate(90 22.881 39.61)"/>
  </g>
</svg>
